<svg id="레이어_1" data-name="레이어 1" xmlns="http://www.w3.org/2000/svg" viewBox="0 0 10.58 10.58"><defs><style>.cls-1{fill:#fff;}</style></defs><title>mail-logo</title><path class="cls-1" d="M5.28,0a.26.26,0,0,0-.16.06l-1.27,1H2.38A1.06,1.06,0,0,0,1.32,2.12v.94L.1,4a.26.26,0,0,0-.1.21V9.53a1.06,1.06,0,0,0,1.06,1.06H9.53a1.06,1.06,0,0,0,1.06-1.06V4.23a.26.26,0,0,0-.1-.21l-1.22-1V2.12A1.06,1.06,0,0,0,8.2,1.06H6.72L5.46.06A.26.26,0,0,0,5.28,0Zm0,.6.58.46H4.71Zm-2.91,1H8.2a.52.52,0,0,1,.53.53v3L6.47,6.93l-1-.79a.27.27,0,0,0-.32,0l-1,.79L1.85,5.15v-3A.52.52,0,0,1,2.38,1.59Zm.5,1.06h0a.27.27,0,0,0,0,.53H7.67a.26.26,0,0,0,0-.53H2.88ZM1.32,3.73v1l-.63-.5Zm7.94,0,.63.5-.63.5Zm-6.38.5a.27.27,0,0,0,0,.53H7.67a.26.26,0,1,0,0-.53H2.88ZM.53,4.78,3.68,7.27.56,9.7a.54.54,0,0,1,0-.17Zm9.53,0V9.53a.54.54,0,0,1,0,.17L6.9,7.27ZM5.29,6.69,9.61,10H1Z"/></svg>