<svg id="레이어_1" data-name="레이어 1" xmlns="http://www.w3.org/2000/svg" viewBox="0 0 86.06 85.85"><defs><style>.cls-1{fill:#fff;stroke:#fff;stroke-miterlimit:10;}</style></defs><title>categories</title><path class="cls-1" d="M69.12,8.14H16.94a8.71,8.71,0,0,0-8.7,8.7V69a8.71,8.71,0,0,0,8.7,8.7H69.12a8.71,8.71,0,0,0,8.7-8.7V16.83A8.71,8.71,0,0,0,69.12,8.14ZM16.94,11.61H69.12a5.22,5.22,0,0,1,5.22,5.22V29H11.72V16.83A5.22,5.22,0,0,1,16.94,11.61ZM69.12,74.23H16.94A5.22,5.22,0,0,1,11.72,69V32.49H74.34V69A5.22,5.22,0,0,1,69.12,74.23Z"/><path class="cls-1" d="M20.42,22.05h7a1.74,1.74,0,1,0,0-3.48h-7a1.74,1.74,0,1,0,0,3.48Z"/><path class="cls-1" d="M34.33,22.05h7a1.74,1.74,0,0,0,0-3.48h-7a1.74,1.74,0,0,0,0,3.48Z"/><path class="cls-1" d="M35.56,43.43a1.74,1.74,0,0,0-2.46,0L22.67,53.87a1.74,1.74,0,0,0,0,2.46L33.1,66.76a1.72,1.72,0,0,0,1.23.51,1.74,1.74,0,0,0,1.23-3L26.35,55.1l9.2-9.2A1.74,1.74,0,0,0,35.56,43.43Z"/><path class="cls-1" d="M53,43.43a1.74,1.74,0,0,0-2.46,2.46l9.2,9.21-9.2,9.2a1.74,1.74,0,0,0,0,2.46,1.72,1.72,0,0,0,1.23.51A1.75,1.75,0,0,0,53,66.77L63.39,56.33a1.74,1.74,0,0,0,0-2.46Z"/></svg>