<svg id="레이어_1" data-name="레이어 1" xmlns="http://www.w3.org/2000/svg" viewBox="0 0 86.06 85.85"><defs><style>.cls-1{fill:#fff;}</style></defs><title>categories</title><path class="cls-1" d="M71.37,10.29H62.28a6.53,6.53,0,0,0-6.15-4.35H52.27a6.53,6.53,0,0,0-4.84-2.18h-8.7a6.53,6.53,0,0,0-4.84,2.18H30a6.53,6.53,0,0,0-6.15,4.35H14.8a2.18,2.18,0,0,0-2.18,2.18V79.91a2.18,2.18,0,0,0,2.18,2.18H71.37a2.18,2.18,0,0,0,2.18-2.18V12.46A2.18,2.18,0,0,0,71.37,10.29ZM30,10.29h5a2.18,2.18,0,0,0,1.88-1.08,2.15,2.15,0,0,1,1.87-1.09h8.7A2.15,2.15,0,0,1,49.3,9.21a2.18,2.18,0,0,0,1.88,1.08h5a2.18,2.18,0,1,1,0,4.35H30a2.18,2.18,0,0,1,0-4.35ZM69.19,77.73H17V14.64h6.91A6.53,6.53,0,0,0,30,19H56.14a6.53,6.53,0,0,0,6.15-4.35h6.91Z"/><path class="cls-1" d="M12.52,27a2.28,2.28,0,0,0,2.28,2.28H55.85a2.28,2.28,0,1,0,0-4.56H14.8A2.28,2.28,0,0,0,12.52,27Z"/><path class="cls-1" d="M55.85,33.8H14.8a2.28,2.28,0,0,0,0,4.56H55.85a2.28,2.28,0,1,0,0-4.56Z"/><path class="cls-1" d="M55.85,42.92H14.8a2.28,2.28,0,0,0,0,4.56H55.85a2.28,2.28,0,1,0,0-4.56Z"/><path class="cls-1" d="M46.73,54.33A2.28,2.28,0,0,0,44.45,52H14.8a2.28,2.28,0,0,0,0,4.56H44.45A2.28,2.28,0,0,0,46.73,54.33Z"/><path class="cls-1" d="M61.81,61.84a2.28,2.28,0,0,0-3.23,0l-2.95,2.95-2.95-2.95a2.28,2.28,0,1,0-3.23,3.23L52.41,68,49.46,71a2.28,2.28,0,1,0,3.23,3.23l2.95-2.95,2.95,2.95A2.28,2.28,0,1,0,61.81,71L58.86,68l2.95-2.95A2.28,2.28,0,0,0,61.81,61.84Z"/></svg>