<svg id="레이어_1" data-name="레이어 1" xmlns="http://www.w3.org/2000/svg" viewBox="0 0 144.35 277.71"><defs><style>.cls-1{fill:#fff;}</style></defs><title>무제-1</title><path class="cls-1" d="M141.5,277.71H2.85A2.85,2.85,0,0,1,0,274.86V19.53a2.85,2.85,0,0,1,2.31-2.8L87.88.05a2.86,2.86,0,0,1,1.38.07l53.07,16.28a2.85,2.85,0,0,1,2,2.73V274.86A2.85,2.85,0,0,1,141.5,277.71ZM5.7,272H138.65V21.24L88.28,5.79,5.7,21.88Z"/><path class="cls-1" d="M88.43,277.71a2.85,2.85,0,0,1-2.85-2.85V4a2.85,2.85,0,1,1,5.7,0V274.86A2.85,2.85,0,0,1,88.43,277.71Z"/><path class="cls-1" d="M64.23,68.8c-9.75,1.77-8,1.77-16,2.66-.89,0-1.77,1.77-1.77,2.66V86.53c0,1.77,1.77,2.66,3.55,2.66l16-2.66c.89,0,1.77-.89,1.77-2.66V71.46C67.77,69.69,66,68.8,64.23,68.8Z"/><path class="cls-1" d="M64.23,134.39c-9.75,1.77-8,.89-16,2.66-.89,0-1.77.89-1.77,2.66v12.41c0,1.77,1.77,2.66,3.55,2.66l16-2.66c.89,0,1.77-1.77,1.77-2.66V137.05C67.77,135.28,66,134.39,64.23,134.39Z"/><path class="cls-1" d="M64.23,200c-9.75.89-8,.89-16,1.77a4.6,4.6,0,0,0-1.77,3.55V217.7c0,1.77,1.77,2.66,3.55,2.66l16-2.66c.89,0,1.77-1.77,1.77-3.55V201.75A2.62,2.62,0,0,0,64.23,200Z"/><path class="cls-1" d="M34.54,72.79c-9.75,1.77-8,1.77-16,2.66-.89,0-1.77,1.77-1.77,2.66V90.52c0,1.77,1.77,2.66,3.55,2.66l16-2.66c.89,0,1.77-.89,1.77-2.66V75.45C38.08,73.68,36.31,72.79,34.54,72.79Z"/><path class="cls-1" d="M34.54,138.38c-9.75,1.77-8,.89-16,2.66-.89,0-1.77.89-1.77,2.66v12.41c0,1.77,1.77,2.66,3.55,2.66l16-2.66c.89,0,1.77-1.77,1.77-2.66V141C38.08,139.27,36.31,138.38,34.54,138.38Z"/><path class="cls-1" d="M34.54,204c-9.75.89-8,.89-16,1.77a4.6,4.6,0,0,0-1.77,3.55v12.41c0,1.77,1.77,2.66,3.55,2.66l16-2.66c.89,0,1.77-1.77,1.77-3.55V205.74A2.62,2.62,0,0,0,34.54,204Z"/><path class="cls-1" d="M106.77,31.58c7.09,1.77,10.64,2.66,16,3.55.89,0,1.77,1.77,1.77,3.55V51.08c0,.89-1.77,2.66-2.66,1.77l-16-2.66a4.6,4.6,0,0,1-1.77-3.55l-.89-12.41C103.23,32.46,105,31.58,106.77,31.58Z"/><path class="cls-1" d="M106.77,59.05c7.09,1.77,10.64,2.66,16,3.55a4.6,4.6,0,0,1,1.77,3.55V78.55c0,1.77-1.77,2.66-2.66,1.77l-16-2.66a4.6,4.6,0,0,1-1.77-3.55l-.89-12.41C103.23,59.94,105,59.05,106.77,59.05Z"/><path class="cls-1" d="M106.77,87.42c7.09,1.77,10.64,1.77,16,3.55.89,0,1.77.89,1.77,2.66V106a2.83,2.83,0,0,1-2.66,2.66l-16-3.55c-.89,0-1.77-1.77-1.77-2.66l-.89-13.29C103.23,87.42,105,86.53,106.77,87.42Z"/><path class="cls-1" d="M106.77,114.89c7.09,1.77,10.64,1.77,16,3.55.89,0,1.77,1.77,1.77,2.66V133.5a2.83,2.83,0,0,1-2.66,2.66l-16-3.55c-.89,0-1.77-1.77-1.77-2.66l-.89-13.29A2.62,2.62,0,0,1,106.77,114.89Z"/><path class="cls-1" d="M106.77,142.37c7.09,1.77,10.64,2.66,16,3.55.89,0,1.77,1.77,1.77,2.66v13.29c0,.89-1.77,2.66-2.66,1.77l-16-3.55c-.89,0-1.77-.89-1.77-2.66L103.23,145C103.23,143.25,105,142.37,106.77,142.37Z"/><path class="cls-1" d="M106.77,169.84c7.09,1.77,10.64,2.66,16,3.55a4.6,4.6,0,0,1,1.77,3.55v12.41c0,.89-1.77,2.66-2.66,1.77l-16-2.66a4.6,4.6,0,0,1-1.77-3.55l-.89-12.41C103.23,170.73,105,169.84,106.77,169.84Z"/><path class="cls-1" d="M106.77,198.21c7.09.89,10.64,1.77,16,2.66a4.6,4.6,0,0,1,1.77,3.55v12.41a2.83,2.83,0,0,1-2.66,2.66l-16-3.55c-.89,0-1.77-1.77-1.77-3.55L103.23,200C103.23,198.21,105,197.32,106.77,198.21Z"/><path class="cls-1" d="M106.77,225.68c7.09,1.77,10.64,1.77,16,3.55.89,0,1.77.89,1.77,2.66v12.41a2.83,2.83,0,0,1-2.66,2.66l-16-3.55c-.89,0-1.77-1.77-1.77-2.66l-.89-13.29A2.62,2.62,0,0,1,106.77,225.68Z"/></svg>