<svg id="레이어_1" data-name="레이어 1" xmlns="http://www.w3.org/2000/svg" viewBox="0 0 144.35 125.02"><defs><style>.cls-1{fill:#fff;}</style></defs><title>무제-1</title><path class="cls-1" d="M141.5,125H2.85A2.85,2.85,0,0,1,0,122.17v-103a2.85,2.85,0,0,1,2-2.73L55.09.13A2.83,2.83,0,0,1,56.47.05L142,16.74a2.85,2.85,0,0,1,2.31,2.8V122.17A2.85,2.85,0,0,1,141.5,125ZM5.7,119.32H138.65V21.88L56.08,5.79,5.7,21.24Z"/><path class="cls-1" d="M55.92,125a2.85,2.85,0,0,1-2.85-2.85V2.85a2.85,2.85,0,0,1,5.7,0V122.17A2.85,2.85,0,0,1,55.92,125Z"/><path class="cls-1" d="M74.84,39.76c10.64.89,8,.89,16,1.77,1.77.89,2.66,1.77,2.66,3.55V57.48c0,1.77-1.77,2.66-3.55,2.66l-16-2.66c-1.77,0-1.77-1.77-1.77-3.55V41.53C72.18,40.64,73.95,38.87,74.84,39.76Z"/><path class="cls-1" d="M105,44.19c9.75,1.77,8,1.77,15.07,2.66a2.83,2.83,0,0,1,2.66,2.66V61.92a2.62,2.62,0,0,1-3.55,1.77l-15.07-1.77c-1.77,0-2.66-1.77-2.66-3.55l.89-11.52A2.35,2.35,0,0,1,105,44.19Z"/><path class="cls-1" d="M36.61,41.21C29.52,43,26,43,20.66,44.75A2.35,2.35,0,0,0,18,47.41l.89,12.41a2.35,2.35,0,0,0,2.66,2.66l15.07-3.55a2.83,2.83,0,0,0,2.66-2.66V43C39.27,42.09,37.5,40.32,36.61,41.21Z"/><path class="cls-1" d="M36.61,76.43C29.52,78.21,26,78.21,20.66,80A2.35,2.35,0,0,0,18,82.64L18.88,95a2.35,2.35,0,0,0,2.66,2.66l15.07-3.55a2.83,2.83,0,0,0,2.66-2.66V78.21C39.27,77.32,37.5,75.55,36.61,76.43Z"/></svg>