<svg id="레이어_1" data-name="레이어 1" xmlns="http://www.w3.org/2000/svg" viewBox="0 0 144.35 428.38"><defs><style>.cls-1{fill:#fff;}</style></defs><title>무제-1</title><path class="cls-1" d="M141.5,428.38H2.85A2.85,2.85,0,0,1,0,425.53V19.14a2.85,2.85,0,0,1,2-2.73L55.09.13A2.82,2.82,0,0,1,56.47.05L142,16.74a2.85,2.85,0,0,1,2.31,2.8v406A2.85,2.85,0,0,1,141.5,428.38ZM5.7,422.68H138.65V21.89L56.08,5.79,5.7,21.24Z"/><path class="cls-1" d="M55.92,428.38a2.85,2.85,0,0,1-2.85-2.85V4a2.85,2.85,0,1,1,5.7,0V425.53A2.85,2.85,0,0,1,55.92,428.38Z"/><path class="cls-1" d="M72.32,32.47V44.87A2.83,2.83,0,0,0,75,47.53l16,2.66a2.83,2.83,0,0,0,2.66-2.66V35.12c0-1.77-.89-2.66-1.77-2.66-8-1.77-5.32-.89-16-2.66C74.1,29.81,72.32,30.69,72.32,32.47Z"/><path class="cls-1" d="M102.46,36.9V49.31c0,.89.89,2.66,1.77,2.66l16,2.66A2.83,2.83,0,0,0,122.84,52V39.56c0-.89-.89-2.66-1.77-2.66-8-.89-5.32-.89-16-1.77C104.23,34.24,102.46,35.12,102.46,36.9Z"/><path class="cls-1" d="M72.32,65.26V77.67A2.35,2.35,0,0,0,75,80.33l16,2.66c.89,0,2.66-.89,2.66-1.77V67.92c0-.89-.89-2.66-1.77-2.66-8-.89-5.32-.89-16-2.66C74.1,62.6,72.32,63.49,72.32,65.26Z"/><path class="cls-1" d="M102.46,69.69V82.1c0,1.77.89,2.66,1.77,2.66l16,2.66a2.83,2.83,0,0,0,2.66-2.66V73.24a4.6,4.6,0,0,0-1.77-3.55c-8-.89-5.32,0-16-1.77C104.23,67.92,102.46,68.8,102.46,69.69Z"/><path class="cls-1" d="M72.32,98.05v12.41c0,1.77.89,3.55,2.66,3.55l16,1.77c.89.89,2.66-.89,2.66-1.77V101.6c0-1.77-.89-3.55-1.77-3.55-8-.89-5.32-.89-16-1.77C74.1,95.39,72.32,96.28,72.32,98.05Z"/><path class="cls-1" d="M102.46,103.37v11.52a4.6,4.6,0,0,0,1.77,3.55l16,1.77c.89,0,2.66-.89,2.66-1.77V106c0-1.77-.89-2.66-1.77-2.66-8-1.77-5.32-.89-16-2.66A2.83,2.83,0,0,0,102.46,103.37Z"/><path class="cls-1" d="M72.32,130.85v13.29A2.83,2.83,0,0,0,75,146.8l16,2.66a2.83,2.83,0,0,0,2.66-2.66V134.39a4.6,4.6,0,0,0-1.77-3.55c-8-.89-5.32,0-16-1.77C74.1,129.07,72.32,130,72.32,130.85Z"/><path class="cls-1" d="M102.46,136.16v12.41c0,.89.89,2.66,1.77,2.66l16,1.77c.89.89,2.66,0,2.66-1.77V138.82c0-.89-.89-2.66-1.77-2.66-8-.89-5.32-.89-16-2.66A2.83,2.83,0,0,0,102.46,136.16Z"/><path class="cls-1" d="M72.32,164.53v12.41A2.35,2.35,0,0,0,75,179.59l16,2.66a2.83,2.83,0,0,0,2.66-2.66V167.19c0-.89-.89-2.66-1.77-2.66-8-1.77-5.32-.89-16-2.66C74.1,161.87,72.32,162.75,72.32,164.53Z"/><path class="cls-1" d="M102.46,169v12.41c0,1.77.89,2.66,1.77,2.66l16,2.66a2.83,2.83,0,0,0,2.66-2.66V172.5a4.6,4.6,0,0,0-1.77-3.55c-8-.89-5.32-.89-16-1.77C104.23,167.19,102.46,168.07,102.46,169Z"/><path class="cls-1" d="M72.32,197.32v12.41c0,1.77.89,2.66,2.66,3.55l16,1.77c.89.89,2.66-.89,2.66-1.77V200.87c0-1.77-.89-3.55-1.77-3.55-8-.89-5.32-.89-16-2.66C74.1,194.66,72.32,195.55,72.32,197.32Z"/><path class="cls-1" d="M102.46,202.64v11.52a4.6,4.6,0,0,0,1.77,3.55l16,1.77c.89,0,2.66-.89,2.66-1.77V205.3c0-1.77-.89-2.66-1.77-2.66-8-1.77-5.32-.89-16-2.66A2.83,2.83,0,0,0,102.46,202.64Z"/><path class="cls-1" d="M72.32,230.11v13.29A2.83,2.83,0,0,0,75,246.07l16,2.66a2.83,2.83,0,0,0,2.66-2.66V233.66a4.6,4.6,0,0,0-1.77-3.55c-8-.89-5.32-.89-16-1.77C74.1,228.34,72.32,229.23,72.32,230.11Z"/><path class="cls-1" d="M102.46,235.43v12.41c0,.89.89,2.66,1.77,2.66l16,1.77c.89.89,2.66,0,2.66-1.77V238.09c0-.89-.89-2.66-1.77-2.66-8-.89-5.32-.89-16-2.66A2.83,2.83,0,0,0,102.46,235.43Z"/><path class="cls-1" d="M72.32,263.79V276.2A2.83,2.83,0,0,0,75,278.86l16,2.66a2.83,2.83,0,0,0,2.66-2.66V266.45c0-1.77-.89-2.66-1.77-2.66-8-1.77-5.32-.89-16-2.66C74.1,261.14,72.32,262,72.32,263.79Z"/><path class="cls-1" d="M102.46,268.23v12.41c0,.89.89,2.66,1.77,2.66l16,2.66a2.83,2.83,0,0,0,2.66-2.66V271.77c0-1.77-.89-3.55-1.77-3.55-8-.89-5.32-.89-16-1.77C104.23,265.57,102.46,267.34,102.46,268.23Z"/><path class="cls-1" d="M72.32,296.59V309c0,1.77.89,2.66,2.66,3.55l16,1.77c.89,0,2.66-.89,2.66-1.77V299.25c0-.89-.89-2.66-1.77-2.66-8-.89-5.32-.89-16-2.66C74.1,293.93,72.32,294.82,72.32,296.59Z"/><path class="cls-1" d="M102.46,301v12.41c0,1.77.89,2.66,1.77,2.66l16,2.66c.89,0,2.66-.89,2.66-1.77V304.56a4.6,4.6,0,0,0-1.77-3.55c-8-.89-5.32,0-16-1.77C104.23,299.25,102.46,300.13,102.46,301Z"/><path class="cls-1" d="M72.32,329.38v12.41c0,1.77.89,3.55,2.66,3.55l16,1.77c.89.89,2.66,0,2.66-1.77V332.93a4.6,4.6,0,0,0-1.77-3.55c-8-.89-5.32-.89-16-1.77A2.62,2.62,0,0,0,72.32,329.38Z"/><path class="cls-1" d="M102.46,334.7v11.52c0,1.77.89,3.55,1.77,3.55l16,1.77c.89.89,2.66-.89,2.66-1.77V337.36c0-1.77-.89-2.66-1.77-2.66-8-.89-5.32-.89-16-2.66A2.83,2.83,0,0,0,102.46,334.7Z"/><path class="cls-1" d="M37.76,26.26V38.67A4.6,4.6,0,0,1,36,42.22L20,44.87c-1.77.89-2.66-.89-2.66-1.77l-.89-12.41c0-1.77.89-3.55,2.66-3.55,5.32-.89,8-1.77,16-3.55A2.83,2.83,0,0,1,37.76,26.26Z"/><path class="cls-1" d="M37.76,96.28v13.29c0,.89-.89,2.66-1.77,2.66l-16,3.55a2.35,2.35,0,0,1-2.66-2.66l-.89-12.41a2.35,2.35,0,0,1,2.66-2.66c5.32-1.77,8-1.77,16-3.55C36,93.62,37.76,95.39,37.76,96.28Z"/><path class="cls-1" d="M37.76,167.19v12.41c0,1.77-.89,2.66-1.77,2.66L20,185.8c-1.77,0-2.66-.89-2.66-1.77l-.89-13.29a2.83,2.83,0,0,1,2.66-2.66c5.32-.89,8-1.77,16-3.55A2.83,2.83,0,0,1,37.76,167.19Z"/><path class="cls-1" d="M37.76,237.2v12.41A4.6,4.6,0,0,1,36,253.16l-16,2.66c-1.77.89-2.66,0-2.66-1.77l-.89-12.41c0-1.77.89-2.66,2.66-3.55,5.32-.89,8-1.77,16-3.55A2.83,2.83,0,0,1,37.76,237.2Z"/><path class="cls-1" d="M37.76,307.22v13.29c0,.89-.89,2.66-1.77,2.66l-16,3.55a2.35,2.35,0,0,1-2.66-2.66l-.89-12.41A2.35,2.35,0,0,1,19.15,309c5.32-1.77,8-1.77,16-3.55C36,304.56,37.76,306.34,37.76,307.22Z"/><path class="cls-1" d="M37.76,378.13v12.41c0,1.77-.89,2.66-1.77,2.66l-16,3.55c-1.77.89-2.66-.89-2.66-1.77l-.89-13.29A2.83,2.83,0,0,1,19.15,379c5.32-.89,8-1.77,16-3.55A2.83,2.83,0,0,1,37.76,378.13Z"/><path class="cls-1" d="M72.32,374.58v13.29A2.83,2.83,0,0,0,75,390.54l45.2,7.09a2.83,2.83,0,0,0,2.66-2.66V382.56a4.6,4.6,0,0,0-1.77-3.55c-8-.89-34.57-4.43-45.2-6.2C74.1,372.81,72.32,373.7,72.32,374.58Z"/></svg>