<svg id="레이어_1" data-name="레이어 1" xmlns="http://www.w3.org/2000/svg" viewBox="0 0 178.99 590.58"><defs><style>.cls-1{fill:#fff;}</style></defs><title>무제-1</title><path class="cls-1" d="M176.13,590.58H2.85a2.85,2.85,0,0,1-2.85-3C17.64,327,11.78,23.72,11.72,20.68a2.85,2.85,0,0,1,2.35-2.86L112.75,0a2.83,2.83,0,0,1,1.3.07L160.8,13.74a2.85,2.85,0,0,1,2.05,2.7c0,3.55,5,357.86,16.13,571.14a2.85,2.85,0,0,1-2.85,3ZM5.9,584.87H173.13c-10.59-205-15.52-536.58-15.95-566.25L113.1,5.78,17.47,23C18,52.25,22.47,337.21,5.9,584.87Z"/><path class="cls-1" d="M113.27,590.58a2.85,2.85,0,0,1-2.85-2.85V4a2.85,2.85,0,0,1,5.7,0V587.73A2.85,2.85,0,0,1,113.27,590.58Z"/><path class="cls-1" d="M147.89,590.58a2.85,2.85,0,0,1-2.85-2.74c-9.56-237.06-9.93-574-9.93-577.33A2.85,2.85,0,0,1,138,7.65h0a2.85,2.85,0,0,1,2.85,2.85c0,3.37.38,340.16,9.93,577.11a2.85,2.85,0,0,1-2.74,3Z"/><path class="cls-1" d="M86.78,200.59l-.18,12.23c0,.87-.92,2.62-1.81,2.62l-16,2.62c-1.77,0-3.53-.87-3.51-2.62l.18-12.23a2.37,2.37,0,0,1,2.7-2.62c8-1.75,5.33-.87,16-2.62A2.76,2.76,0,0,1,86.78,200.59Z"/><path class="cls-1" d="M56.59,205l.71,12.23a2.86,2.86,0,0,1-2.7,2.62l-15.11,2.62c-1.77,0-3.53-.87-3.51-2.62l.18-12.23a2.86,2.86,0,0,1,2.7-2.62c7.1-.87,5.33-.87,15.09-1.75C55.74,202.34,56.61,203.21,56.59,205Z"/><path class="cls-1" d="M86.32,232.91l-.18,12.23c0,1.75-.92,2.62-1.81,2.62l-16,2.62c-1.77,0-3.53-.87-3.52-1.75L65,235.53a2.86,2.86,0,0,1,2.7-2.62c8-.87,5.33-.87,16-2.62A2.76,2.76,0,0,1,86.32,232.91Z"/><path class="cls-1" d="M56.12,237.28l.71,12.23a2.37,2.37,0,0,1-2.7,2.62L39,254.76c-1.77,0-3.53-.87-3.51-2.62l.16-11.36c0-1.75.92-2.62,2.71-3.49,7.1-.87,5.32,0,15.09-1.75C55.26,235.53,56.13,236.41,56.12,237.28Z"/><path class="cls-1" d="M85.85,265.24l-.18,12.23c0,1.75-.94,3.49-1.82,3.49l-16,1.75A2.58,2.58,0,0,1,64.36,281l.18-12.23c0-1.75.94-3.49,2.71-3.49,8-.87,5.33-.87,16-1.75C84.12,262.62,85.88,263.49,85.85,265.24Z"/><path class="cls-1" d="M55.64,270.48l.72,11.36c0,1.75-.92,2.62-2.71,3.49l-15.09,1.75c-1.77,0-3.53-.87-3.52-1.75l.18-12.23a2.37,2.37,0,0,1,2.7-2.62c7.12-1.75,5.33-.87,15.11-2.62A2.3,2.3,0,0,1,55.64,270.48Z"/><path class="cls-1" d="M85.39,297.56l-.19,13.11c0,.87-.92,2.62-1.81,2.62l-16,2.62c-1.77,0-3.53-.87-3.51-2.62l.18-12.23c0-1.75.92-2.62,2.71-3.49,8-.87,5.32,0,16-1.75C83.64,295.82,85.4,296.69,85.39,297.56Z"/><path class="cls-1" d="M55.18,302.81,55.89,315a2.86,2.86,0,0,1-2.7,2.62L38.1,319.41c-1.79.87-3.55,0-3.52-1.75l.18-12.23a2.86,2.86,0,0,1,2.7-2.62c7.1-.87,5.33-.87,15.11-2.62A2.3,2.3,0,0,1,55.18,302.81Z"/><path class="cls-1" d="M84.91,330.76,84.74,343c0,1.75-.92,2.62-1.81,2.62l-16,2.62c-1.77,0-3.53-.87-3.51-2.62l.18-12.23a2.86,2.86,0,0,1,2.7-2.62c8-1.75,5.33-.87,16-2.62A2.76,2.76,0,0,1,84.91,330.76Z"/><path class="cls-1" d="M54.71,335.13l.71,12.23a2.37,2.37,0,0,1-2.7,2.62l-15.11,2.62c-1.77,0-3.53-.87-3.51-2.62l.16-11.36c0-1.75.92-2.62,2.71-3.49,7.1-.87,5.33-.87,15.09-1.75C53.85,333.39,54.73,334.26,54.71,335.13Z"/><path class="cls-1" d="M84.45,363.09l-.18,12.23a4.59,4.59,0,0,1-1.82,3.49l-16,1.75a2.58,2.58,0,0,1-3.52-1.75l.18-12.23c0-1.75.94-3.49,2.71-3.49,8-.87,5.33-.87,16-2.62A2.76,2.76,0,0,1,84.45,363.09Z"/><path class="cls-1" d="M54.24,368.33,55,379.69c0,1.75-.92,2.62-2.71,3.49l-15.09,1.75c-1.77,0-3.53-.87-3.52-1.75L33.81,371a2.37,2.37,0,0,1,2.7-2.62c7.12-1.75,5.33-.87,15.11-2.62A2.3,2.3,0,0,1,54.24,368.33Z"/><path class="cls-1" d="M84,395.42l-.19,13.11c0,.87-.92,2.62-1.81,2.62l-16,2.62c-1.77,0-3.53-.87-3.51-2.62l.18-12.23c0-1.75.92-2.62,2.71-3.49,8-.87,5.33-.87,16-1.75C82.24,393.67,84,394.54,84,395.42Z"/><path class="cls-1" d="M53.77,400.66l.71,12.23a2.86,2.86,0,0,1-2.7,2.62l-15.09,1.75c-1.79.87-3.55,0-3.52-1.75l.18-12.23a2.86,2.86,0,0,1,2.7-2.62c7.1-.87,5.33-.87,15.11-2.62A2.3,2.3,0,0,1,53.77,400.66Z"/><path class="cls-1" d="M83.51,428.61l-.18,12.23c0,.87-.92,2.62-1.81,2.62l-16,2.62c-1.77,0-3.53-.87-3.51-2.62l.18-12.23a2.37,2.37,0,0,1,2.7-2.62c8-1.75,5.33-.87,16-2.62A2.76,2.76,0,0,1,83.51,428.61Z"/><path class="cls-1" d="M53.31,433,54,445.21a2.86,2.86,0,0,1-2.7,2.62l-15.11,2.62c-1.77,0-3.53-.87-3.51-2.62l.16-11.36c0-1.75.94-3.49,2.71-3.49,7.1-.87,5.33-.87,15.09-1.75A1.81,1.81,0,0,1,53.31,433Z"/><path class="cls-1" d="M83,460.94l-.18,12.23A4.59,4.59,0,0,1,81,476.67l-16,1.75c-1.77,0-3.53-.87-3.52-1.75l.19-13.11a2.86,2.86,0,0,1,2.7-2.62c8-.87,5.33-.87,16-2.62A2.76,2.76,0,0,1,83,460.94Z"/><path class="cls-1" d="M52.84,465.31l.71,12.23a2.37,2.37,0,0,1-2.7,2.62l-15.11,2.62c-1.77,0-3.53-.87-3.52-1.75l.18-12.23c0-1.75.92-2.62,2.71-3.49,7.1-.87,5.32,0,15.09-1.75C52,463.56,52.86,464.44,52.84,465.31Z"/><path class="cls-1" d="M82.58,493.27,82.4,505.5c0,1.75-.94,3.49-1.82,3.49l-16,1.75c-1.79.87-3.55,0-3.52-1.75l.18-12.23c0-1.75.92-2.62,2.71-3.49,8-.87,5.33-.87,16-1.75C80.84,490.65,82.59,492.39,82.58,493.27Z"/><path class="cls-1" d="M52.37,498.51l.72,11.36c0,1.75-.94,3.49-2.71,3.49l-15.09,1.75a2.58,2.58,0,0,1-3.52-1.75l.18-12.23a2.37,2.37,0,0,1,2.7-2.62c7.1-.87,5.33-.87,15.11-2.62A2.3,2.3,0,0,1,52.37,498.51Z"/><path class="cls-1" d="M81.94,537.82l-.19,13.11c0,.87-.92,2.62-1.81,2.62l-45.3,7c-1.77,0-3.53-.87-3.51-2.62l.18-12.23c0-1.75.92-2.62,2.71-3.49,8-.87,34.63-4.37,45.29-6.12C80.19,536.08,81.95,536.95,81.94,537.82Z"/><path class="cls-1" d="M87.22,170,87,182.24c0,1.75-.92,2.62-1.81,2.62l-45.3,7c-1.77,0-3.53-.87-3.52-1.75L36.6,177a2.86,2.86,0,0,1,2.7-2.62c8-.87,34.64-5.24,45.3-7A2.76,2.76,0,0,1,87.22,170Z"/><path class="cls-1" d="M87.61,142.93l-.18,12.23c0,.87-.92,2.62-1.81,2.62l-45.3,7c-1.77,0-3.53-.87-3.51-2.62L37,149.92a2.37,2.37,0,0,1,2.7-2.62c8-1.75,34.64-5.24,45.3-7A2.76,2.76,0,0,1,87.61,142.93Z"/><path class="cls-1" d="M88.14,106.23l-.05,3.49c0,.87-.92,2.62-1.81,2.62l-45.3,7c-1.77,0-3.53-.87-3.51-2.62l0-2.62c0-1.75.94-3.49,2.71-3.49,8-.87,34.64-5.24,45.29-6.12C86.4,103.61,88.15,105.36,88.14,106.23Z"/><path class="cls-1" d="M88.34,92.25l0,2.62a4.59,4.59,0,0,1-1.82,3.49l-45.29,6.12a2.58,2.58,0,0,1-3.52-1.75l.05-3.49a2.86,2.86,0,0,1,2.7-2.62c8-1.75,34.64-5.24,45.3-7A2.76,2.76,0,0,1,88.34,92.25Z"/><path class="cls-1" d="M88.55,77.4,88.5,80.9c0,.87-.92,2.62-1.81,2.62l-45.3,7c-1.77,0-3.53-.87-3.51-2.62l0-2.62c0-1.75.94-3.49,2.71-3.49,8-.87,34.64-5.24,45.29-6.12C86.82,74.78,88.57,76.53,88.55,77.4Z"/></svg>