<svg id="레이어_1" data-name="레이어 1" xmlns="http://www.w3.org/2000/svg" viewBox="0 0 144.35 190.85"><defs><style>.cls-1{fill:#fff;}</style></defs><title>무제-1</title><path class="cls-1" d="M141.5,190.85H2.85A2.85,2.85,0,0,1,0,188V19.14a2.85,2.85,0,0,1,2-2.73L55.09.13A2.82,2.82,0,0,1,56.47.05L142,16.74a2.85,2.85,0,0,1,2.31,2.8V188A2.85,2.85,0,0,1,141.5,190.85ZM5.7,185.15H138.65V21.89L56.08,5.79,5.7,21.24Z"/><path class="cls-1" d="M55.92,190.85A2.85,2.85,0,0,1,53.07,188V2.85a2.85,2.85,0,1,1,5.7,0V188A2.85,2.85,0,0,1,55.92,190.85Z"/><path class="cls-1" d="M79,47.53c10.64,1.77,8,.89,16,2.66a2.35,2.35,0,0,1,2.66,2.66V65.26c0,1.77-1.77,2.66-3.55,2.66l-16-2.66c-1.77,0-1.77-1.77-1.77-2.66V50.19A2.83,2.83,0,0,1,79,47.53Z"/><path class="cls-1" d="M109.09,52.85c9.75.89,8,.89,15.07,1.77a2.83,2.83,0,0,1,2.66,2.66V69.69c0,1.77-1.77,2.66-3.55,2.66L108.2,69.69A2.83,2.83,0,0,1,105.54,67l.89-12.41C106.43,52.85,107.31,52,109.09,52.85Z"/><path class="cls-1" d="M37.29,28c-7.09,1.77-10.64,1.77-16,3.55a2.83,2.83,0,0,0-2.66,2.66l.89,12.41a2.35,2.35,0,0,0,2.66,2.66l15.07-3.55A2.83,2.83,0,0,0,40,43.1V29.81C40,28.92,38.18,27.15,37.29,28Z"/><path class="cls-1" d="M37.29,55.51c-7.09,1.77-10.64,2.66-16,3.55a2.83,2.83,0,0,0-2.66,2.66L19.57,75c0,.89.89,2.66,2.66,1.77l15.07-3.55A2.35,2.35,0,0,0,40,70.58V58.17A2.83,2.83,0,0,0,37.29,55.51Z"/><path class="cls-1" d="M37.29,83c-7.09,1.77-10.64,2.66-16,3.55-1.77.89-2.66,1.77-2.66,3.55l.89,12.41c0,.89.89,2.66,2.66,1.77l15.07-2.66c1.77-.89,2.66-1.77,2.66-3.55V85.64A2.83,2.83,0,0,0,37.29,83Z"/><path class="cls-1" d="M37.29,111.35c-7.09.89-10.64,1.77-16,2.66-1.77.89-2.66,1.77-2.66,3.55L19.57,130a2.35,2.35,0,0,0,2.66,2.66l15.07-3.55c1.77,0,2.66-1.77,2.66-3.55V113.12C40,111.35,38.18,110.46,37.29,111.35Z"/><path class="cls-1" d="M37.29,138.82c-7.09,1.77-10.64,1.77-16,3.55A2.35,2.35,0,0,0,18.68,145l.89,12.41a2.35,2.35,0,0,0,2.66,2.66l15.07-3.55A2.83,2.83,0,0,0,40,153.89V140.6C40,139.71,38.18,137.94,37.29,138.82Z"/><path class="cls-1" d="M79,113.12c10.64.89,8,.89,16,1.77,1.77.89,2.66,1.77,2.66,3.55v12.41c0,1.77-1.77,2.66-3.55,2.66l-16-2.66c-1.77,0-1.77-1.77-1.77-3.55V114.89C76.29,114,78.06,112.23,79,113.12Z"/><path class="cls-1" d="M109.09,117.55c9.75,1.77,8,1.77,15.07,2.66a2.83,2.83,0,0,1,2.66,2.66v12.41a2.62,2.62,0,0,1-3.55,1.77l-15.07-1.77c-1.77,0-2.66-1.77-2.66-3.55l.89-11.52A2.35,2.35,0,0,1,109.09,117.55Z"/></svg>