<?xml version="1.0" encoding="utf-8"?>
<!-- Generator: Adobe Illustrator 21.1.0, SVG Export Plug-In . SVG Version: 6.00 Build 0)  -->
<svg version="1.1" id="레이어_1" xmlns="http://www.w3.org/2000/svg" xmlns:xlink="http://www.w3.org/1999/xlink" x="0px"
	 y="0px" viewBox="0 0 44 72" style="enable-background:new 0 0 44 72;" xml:space="preserve">
<style type="text/css">
	.st0{fill:#FFFFFF;}
</style>
<g>
	<path class="st0" d="M22,72C9.9,72,0,62.1,0,50V22C0,9.9,9.9,0,22,0s22,9.9,22,22v28C44,62.1,34.1,72,22,72z M22,4
		C12.1,4,4,12.1,4,22v28c0,9.9,8.1,18,18,18s18-8.1,18-18V22C40,12.1,31.9,4,22,4z"/>
</g>
<g>
	<path class="st0" d="M22,25c-1.1,0-2-0.9-2-2v-8c0-1.1,0.9-2,2-2s2,0.9,2,2v8C24,24.1,23.1,25,22,25z"/>
</g>
</svg>
