<svg id="레이어_1" data-name="레이어 1" xmlns="http://www.w3.org/2000/svg" viewBox="0 0 86.06 85.85"><defs><style>.cls-1{fill:#fff;}</style></defs><title>categories</title><path class="cls-1" d="M71.41,22.44V9.17A2.54,2.54,0,0,0,67.62,7C67.4,7.1,45.13,19.77,30,19.77H22.34a15.66,15.66,0,0,0-6.26,30L24.9,75.53a5,5,0,0,0,4.68,3.68,4.73,4.73,0,0,0,.68-.05,22.33,22.33,0,0,0,9.59-3A6.15,6.15,0,0,0,41.53,75a2.54,2.54,0,0,0,.27-.32,6.17,6.17,0,0,0,.05-7.19c-.9-1.45-3.22-7-3.63-15.5C52.35,54.95,67.41,63.79,67.57,63.9a2.54,2.54,0,0,0,3.83-2.18V45a10.57,10.57,0,0,0,8-10.25V32.68A10.57,10.57,0,0,0,71.41,22.44Zm-59.64,13a10.61,10.61,0,0,1,10.56-10.6h5.16V46H22.33A10.61,10.61,0,0,1,11.78,35.44Zm26,36.13-.32.17-.28.16a16.44,16.44,0,0,1-7.4,2.21v-.17L21.92,51.09h8.14c1,0,2,.05,3,.14.3,9.9,3,16.73,4.5,19l.08.11A1.11,1.11,0,0,1,37.76,71.57ZM66.34,22.11v35.3C59.58,53.85,45.21,47,32.53,46.14V24.74c12.21-.89,26.94-7.79,33.81-11.33Zm8,12.68a5.49,5.49,0,0,1-3,4.87V27.83a5.49,5.49,0,0,1,2.92,4.85Z"/></svg>