<svg id="레이어_1" data-name="레이어 1" xmlns="http://www.w3.org/2000/svg" viewBox="0 0 86.06 85.85"><defs><style>.cls-1{fill:#fff;}</style></defs><title>categories</title><path class="cls-1" d="M76.56,59.69,58.12,41.25l8.38-8.38,3.35-3.35,3.35-3.35A9.48,9.48,0,1,0,59.79,12.75L56.44,16.1l-3.35,3.35L44.7,27.84,26.26,9.39,22.91,6,19.56,9.39,9.5,19.45,6.15,22.81,9.5,26.16l4.19,4.19L15.37,32l5,5,1.68,1.68,5,5,.84.84L19.56,53l-2.75,3.19a13.5,13.5,0,0,0-2.59,4.55l-2.51,7.53-3,9,9-3,7.53-2.51a13.48,13.48,0,0,0,4.55-2.59L33,66.39,41.35,58l.84.84,5,5,1.68,1.68,5,5,1.68,1.68,4.19,4.19,3.35,3.35,3.35-3.35L76.56,66.39,79.91,63ZM63.15,16.1a4.74,4.74,0,1,1,6.71,6.71L66.5,26.16l-6.71-6.71Zm-6.71,6.71.14.14,6.57,6.57-8.38,8.38-6.71-6.71ZM16.2,69.75l3.35-10.06,6.71,6.71ZM29.62,63l-6.71-6.71L31.29,48l2.51,2.51,1.68,1.68L38,54.66ZM63.15,73.1,59,68.91l6.71-6.71L64,60.52l-6.71,6.71-5-5,3.35-3.35-1.68-1.68-3.35,3.35-5-5,3.35-3.35-1.68-1.68-3.35,3.35-5-5,6.71-6.71-1.68-1.68-6.71,6.71-5-5,3.35-3.35-1.68-1.68-3.35,3.35-5-5L28.78,32,27.1,30.35,23.75,33.7l-5-5L25.43,22l-1.68-1.68L17,27l-4.19-4.19L22.91,12.75,73.21,63Z"/></svg>