<svg id="레이어_1" data-name="레이어 1" xmlns="http://www.w3.org/2000/svg" viewBox="0 0 82.36 61.05"><defs><style>.cls-1{fill:#fff;}</style></defs><title>sound</title><path class="cls-1" d="M42.17.43a4.29,4.29,0,0,0-4.53.5L17.94,16.52H4.29A4.29,4.29,0,0,0,0,20.81V40.24a4.29,4.29,0,0,0,4.29,4.29H17.94l19.7,15.59a4.29,4.29,0,0,0,7-3.36V4.29A4.29,4.29,0,0,0,42.17.43Z"/><path class="cls-1" d="M60.36,15.34a4.29,4.29,0,1,0-6.07,6.07,12.92,12.92,0,0,1,0,18.25,4.29,4.29,0,1,0,6.07,6.07,21.47,21.47,0,0,0,0-30.38Z"/><path class="cls-1" d="M65.41,4.21a4.29,4.29,0,0,0,0,6.07,28.66,28.66,0,0,1,0,40.49,4.29,4.29,0,0,0,6.07,6.07,37.26,37.26,0,0,0,0-52.63A4.3,4.3,0,0,0,65.41,4.21Z"/></svg>