<svg id="레이어_1" data-name="레이어 1" xmlns="http://www.w3.org/2000/svg" viewBox="0 0 366.71 78.33"><defs><style>.cls-1,.cls-2{fill:#fff;}.cls-2{stroke:#fff;stroke-miterlimit:10;}</style></defs><title>categories</title><path class="cls-1" d="M267.45,10.29h-9.08a6.53,6.53,0,0,0-6.15-4.35h-3.86a6.53,6.53,0,0,0-4.84-2.18h-8.7A6.53,6.53,0,0,0,230,5.94h-3.86A6.53,6.53,0,0,0,220,10.29h-9.08a2.18,2.18,0,0,0-2.18,2.18V79.91a2.18,2.18,0,0,0,2.18,2.18h56.57a2.18,2.18,0,0,0,2.18-2.18V12.46A2.18,2.18,0,0,0,267.45,10.29Zm-41.34,0h5A2.18,2.18,0,0,0,233,9.21a2.15,2.15,0,0,1,1.87-1.09h8.7a2.15,2.15,0,0,1,1.87,1.09,2.18,2.18,0,0,0,1.88,1.08h5a2.18,2.18,0,0,1,0,4.35H226.12a2.18,2.18,0,1,1,0-4.35Zm39.16,67.45H213.06V14.64H220A6.53,6.53,0,0,0,226.12,19h26.11a6.53,6.53,0,0,0,6.15-4.35h6.91Z" transform="translate(-7.74 -3.76)"/><path class="cls-1" d="M208.6,27a2.28,2.28,0,0,0,2.28,2.28h41.06a2.28,2.28,0,1,0,0-4.56H210.88A2.28,2.28,0,0,0,208.6,27Z" transform="translate(-7.74 -3.76)"/><path class="cls-1" d="M251.94,33.8H210.88a2.28,2.28,0,0,0,0,4.56h41.06a2.28,2.28,0,1,0,0-4.56Z" transform="translate(-7.74 -3.76)"/><path class="cls-1" d="M251.94,42.92H210.88a2.28,2.28,0,0,0,0,4.56h41.06a2.28,2.28,0,1,0,0-4.56Z" transform="translate(-7.74 -3.76)"/><path class="cls-1" d="M242.82,54.33A2.28,2.28,0,0,0,240.54,52H210.88a2.28,2.28,0,0,0,0,4.56h29.65A2.28,2.28,0,0,0,242.82,54.33Z" transform="translate(-7.74 -3.76)"/><path class="cls-1" d="M257.9,61.84a2.28,2.28,0,0,0-3.23,0l-2.95,2.95-2.95-2.95a2.28,2.28,0,0,0-3.23,3.23L248.5,68,245.55,71a2.28,2.28,0,1,0,3.23,3.23l2.95-2.95,2.95,2.95A2.28,2.28,0,1,0,257.9,71L254.95,68l2.95-2.95A2.28,2.28,0,0,0,257.9,61.84Z" transform="translate(-7.74 -3.76)"/><path class="cls-2" d="M69.12,8.14H16.94a8.71,8.71,0,0,0-8.7,8.7V69a8.71,8.71,0,0,0,8.7,8.7H69.12a8.71,8.71,0,0,0,8.7-8.7V16.83A8.71,8.71,0,0,0,69.12,8.14ZM16.94,11.61H69.12a5.22,5.22,0,0,1,5.22,5.22V29H11.72V16.83A5.22,5.22,0,0,1,16.94,11.61ZM69.12,74.23H16.94A5.22,5.22,0,0,1,11.72,69V32.49H74.34V69A5.22,5.22,0,0,1,69.12,74.23Z" transform="translate(-7.74 -3.76)"/><path class="cls-2" d="M20.42,22.05h7a1.74,1.74,0,1,0,0-3.48h-7a1.74,1.74,0,1,0,0,3.48Z" transform="translate(-7.74 -3.76)"/><path class="cls-2" d="M34.33,22.05h7a1.74,1.74,0,0,0,0-3.48h-7a1.74,1.74,0,0,0,0,3.48Z" transform="translate(-7.74 -3.76)"/><path class="cls-2" d="M35.56,43.43a1.74,1.74,0,0,0-2.46,0L22.67,53.87a1.74,1.74,0,0,0,0,2.46L33.1,66.76a1.72,1.72,0,0,0,1.23.51,1.74,1.74,0,0,0,1.23-3L26.35,55.1l9.2-9.2A1.74,1.74,0,0,0,35.56,43.43Z" transform="translate(-7.74 -3.76)"/><path class="cls-2" d="M53,43.43a1.74,1.74,0,0,0-2.46,2.46l9.2,9.21-9.2,9.2a1.74,1.74,0,0,0,0,2.46,1.72,1.72,0,0,0,1.23.51A1.75,1.75,0,0,0,53,66.77L63.39,56.33a1.74,1.74,0,0,0,0-2.46Z" transform="translate(-7.74 -3.76)"/><path class="cls-1" d="M169.59,22.44V9.17a2.54,2.54,0,0,0-3.8-2.2c-.22.13-22.49,12.8-37.58,12.8h-7.69a15.66,15.66,0,0,0-6.26,30l8.81,25.72a5,5,0,0,0,4.68,3.68,4.73,4.73,0,0,0,.68-.05,22.33,22.33,0,0,0,9.59-3A6.15,6.15,0,0,0,139.7,75a2.54,2.54,0,0,0,.27-.32,6.17,6.17,0,0,0,.05-7.19c-.9-1.45-3.22-7-3.63-15.5,14.13,2.92,29.19,11.76,29.35,11.87a2.54,2.54,0,0,0,3.83-2.18V45a10.57,10.57,0,0,0,8-10.25V32.68A10.57,10.57,0,0,0,169.59,22.44Zm-59.64,13a10.61,10.61,0,0,1,10.56-10.6h5.16V46h-5.16A10.61,10.61,0,0,1,109.95,35.44Zm26,36.13-.32.17-.28.16a16.44,16.44,0,0,1-7.4,2.21v-.17l-7.84-22.85h8.14c1,0,2,.05,3,.14.3,9.9,3,16.73,4.5,19l.08.11A1.11,1.11,0,0,1,135.93,71.57Zm28.58-49.46v35.3C157.75,53.85,143.38,47,130.7,46.14V24.74c12.21-.89,26.94-7.79,33.81-11.33Zm8,12.68a5.49,5.49,0,0,1-3,4.87V27.83a5.49,5.49,0,0,1,2.92,4.85Z" transform="translate(-7.74 -3.76)"/><path class="cls-1" d="M371.09,59.69,352.65,41.25,361,32.86l3.35-3.35,3.35-3.35a9.48,9.48,0,1,0-13.41-13.41L351,16.1l-3.35,3.35-8.38,8.38L320.8,9.39,317.45,6l-3.35,3.35L304,19.45l-3.35,3.35L304,26.16l4.19,4.19L309.9,32l5,5,1.68,1.68,5,5,.84.84L314.1,53l-2.75,3.19a13.5,13.5,0,0,0-2.59,4.55l-2.51,7.53-3,9,9-3,7.53-2.51a13.48,13.48,0,0,0,4.55-2.59l3.19-2.75L335.89,58l.84.84,5,5,1.68,1.68,5,5,1.68,1.68,4.19,4.19,3.35,3.35L361,76.45,371.1,66.39,374.45,63ZM357.68,16.1a4.74,4.74,0,1,1,6.71,6.71L361,26.16l-6.71-6.71ZM351,22.81l.14.14,6.57,6.57-8.38,8.38-6.71-6.71ZM310.74,69.75l3.35-10.06,6.71,6.71ZM324.15,63l-6.71-6.71L325.83,48l2.51,2.51L330,52.14l2.51,2.51ZM357.68,73.1l-4.19-4.19,6.71-6.71-1.68-1.68-6.71,6.71-5-5,3.35-3.35-1.68-1.68-3.35,3.35-5-5,3.35-3.35-1.68-1.68-3.35,3.35-5-5,6.71-6.71-1.68-1.68-6.71,6.71-5-5L330,38.73l-1.68-1.68L325,40.41l-5-5L323.32,32l-1.68-1.68-3.35,3.35-5-5L320,22l-1.68-1.68L311.58,27l-4.19-4.19,10.06-10.06L367.74,63Z" transform="translate(-7.74 -3.76)"/></svg>