<svg id="레이어_1" data-name="레이어 1" xmlns="http://www.w3.org/2000/svg" viewBox="0 0 96.54 96.1"><defs><style>.cls-1{fill:#fff;}</style></defs><title>link</title><path class="cls-1" d="M90.13,6.2A21.38,21.38,0,0,0,74.83,0a25.18,25.18,0,0,0-17.7,7.5L39.73,25.1c-7.9,7.9-9.8,20.2-4.3,29a28.83,28.83,0,0,0,3,3.9,18.62,18.62,0,0,0,3.8,3l.8.5,2.3-2.3a9.31,9.31,0,0,0,2.5-4.8,5.32,5.32,0,0,0-1.2-4.7c-4.2-4.2-3.6-11.6,1.3-16.6l17.6-17.6A13.7,13.7,0,0,1,75,11.4a9.89,9.89,0,0,1,7.1,2.8,10.75,10.75,0,0,1,3.2,7.6,10.35,10.35,0,0,1-3.2,7.6L67.73,43.9l.2.7a28.08,28.08,0,0,1,1.3,11.2l-.3,3.2L90,37.9a22.15,22.15,0,0,0,6.5-15.8A21.26,21.26,0,0,0,90.13,6.2Z"/><path class="cls-1" d="M21.72,96.1h0a25.18,25.18,0,0,0,17.7-7.5l17.5-17.5c7.9-7.9,9.8-20.2,4.3-29a28.83,28.83,0,0,0-3-3.9,18.62,18.62,0,0,0-3.8-3l-.8-.5L51.33,37a9.31,9.31,0,0,0-2.5,4.8A5.32,5.32,0,0,0,50,46.5c4.2,4.2,3.6,11.6-1.3,16.6L31.23,80.5a13.7,13.7,0,0,1-9.5,4.1,9.89,9.89,0,0,1-7.1-2.8,10.75,10.75,0,0,1-3.2-7.6,10.35,10.35,0,0,1,3.2-7.6l14.2-14.2-.2-.7a27.87,27.87,0,0,1-1.3-11.2l.3-3.2-21.1,21a22.39,22.39,0,0,0,0,31.6A21.14,21.14,0,0,0,21.72,96.1Z"/></svg>