<svg id="레이어_1" data-name="레이어 1" xmlns="http://www.w3.org/2000/svg" viewBox="0 0 88.09 86"><defs><style>.cls-1{fill:#fff;}</style></defs><title>call-logo</title><path class="cls-1" d="M41.85,62.36a12.4,12.4,0,0,0,7.29,4c2.54.24,5.23-.6,8.2-3.91A8.46,8.46,0,0,1,61,59.64c1.7-.57,3.73-.22,5.9,1,4.13,3.14,8.4,6.32,12.46,9.55a6.54,6.54,0,0,1,1.81,6.5,12.24,12.24,0,0,1-3.2,4.8C71,88.62,62.85,92.1,54.82,90.88c-7.75-1.34-15.26-6.77-23.58-15.09l-9.9-9.9C13,57.57,7.59,50.07,6.25,42.31c-1.6-9.59,3.5-17.4,9.46-23.11A12.24,12.24,0,0,1,20.5,16,6.54,6.54,0,0,1,27,17.81c3.23,4.07,6.41,8.33,9.55,12.46,1.17,2.17,1.52,4.2,1,5.9a8.46,8.46,0,0,1-2.78,3.62c-3.31,3-4.15,5.65-3.91,8.2a12.4,12.4,0,0,0,4,7.29m-2.83,2.83a16,16,0,0,1-5.15-9.74c-.36-3.82,1.23-8,5.24-11.56a5.89,5.89,0,0,0,1.66-1.92c.15-.43.19-1.07-.64-2.63L24.17,20.64c-1.15-1.15-1.6-1.11-2.47-.84a9.63,9.63,0,0,0-3.18,2.25C11.35,29.21,9.1,35.27,10.2,41.63S16.1,55,24.17,63.06l9.9,9.9c8.07,8.07,15.08,12.87,21.43,14s12.42-1.15,19.58-8.31a9.63,9.63,0,0,0,2.25-3.18c.27-.87.31-1.33-.84-2.47L64.87,64.08c-1.56-.83-2.19-.79-2.63-.64a5.88,5.88,0,0,0-1.92,1.66c-3.59,4-7.73,5.6-11.56,5.24A16,16,0,0,1,39,65.18" transform="translate(-5.95 -5.12)"/><path class="cls-1" d="M45.94,7.23A2.08,2.08,0,0,0,48,9.12a42,42,0,0,1,42,42,2,2,0,1,0,4,0,46,46,0,0,0-46-46A2.15,2.15,0,0,0,45.94,7.23Zm0,12A2.08,2.08,0,0,0,48,21.12a30,30,0,0,1,30,30,2,2,0,1,0,4,0,34,34,0,0,0-34-34A2.18,2.18,0,0,0,45.94,19.23Z" transform="translate(-5.95 -5.12)"/></svg>