<svg id="레이어_1" data-name="레이어 1" xmlns="http://www.w3.org/2000/svg" viewBox="0 0 85.41 85.41"><defs><style>.cls-1{stroke:#000;stroke-miterlimit:10;stroke-width:2px;}</style></defs><title>download</title><path class="cls-1" d="M43,1.29A41.71,41.71,0,1,0,84.71,43,41.72,41.72,0,0,0,43,1.29Zm0,1.94A39.77,39.77,0,1,1,3.23,43,39.76,39.76,0,0,1,43,3.23Z" transform="translate(-0.29 -0.29)"/><path class="cls-1" d="M43,21.65a1,1,0,0,0-.85,1v38.4l-13-13.88a1,1,0,0,0-1.39,1.33L42.26,64.06a1,1,0,0,0,1.37,0l0,0L58.21,48.51a1,1,0,1,0-1.39-1.33L44.05,60.81V22.65a1,1,0,0,0-.94-1H43Z" transform="translate(-0.29 -0.29)"/></svg>