<svg id="레이어_1" data-name="레이어 1" xmlns="http://www.w3.org/2000/svg" viewBox="0 0 82.38 61.05"><defs><style>.cls-1{fill:#fff;}</style></defs><title>mute</title><path class="cls-1" d="M42.17.43a4.29,4.29,0,0,0-4.53.5L17.94,16.52H4.29A4.29,4.29,0,0,0,0,20.81V40.24a4.29,4.29,0,0,0,4.29,4.29H17.94l19.7,15.59a4.29,4.29,0,0,0,7-3.36V4.29A4.29,4.29,0,0,0,42.17.43Z"/><path class="cls-1" d="M81.12,19.63a4.29,4.29,0,0,0-6.07,0l-4.83,4.83-4.83-4.83a4.29,4.29,0,0,0-6.07,6.07l4.83,4.83-4.83,4.83a4.29,4.29,0,1,0,6.07,6.07l4.83-4.83,4.83,4.83a4.29,4.29,0,0,0,6.07-6.07l-4.83-4.83,4.83-4.83A4.29,4.29,0,0,0,81.12,19.63Z"/></svg>